#N canvas 827 239 734 565 12;
#X obj 182 34 loadbang;
#X obj 152 398 grain.sampler~;
#X obj 339 103 soundfiler;
#X obj 247 103 metro 200;
#X obj 247 7 tgl 25 0 empty empty empty 0 -10 0 10 #e4e4e4 #4d4d4d #373737 0 1;
#N canvas 0 0 450 250 (subpatch) 0;
#X array horizon 8.91418e+06 float 2;
#X coords 0 1 8.91418e+06 -1 200 140 1;
#X restore 528 181 graph;
#X obj 182 447 dac~;
#X obj 439 103 print;
#X obj 36 140 hsl 128 17 0 100 0 0 empty empty empty -2 -8 0 10 #e4e4e4 #4d4d4d #373737 0 1;
#X obj 33 174 * 0.001;
#X obj 67 207 + 0.05;
#X obj 41 241 pack f f;
#X obj 41 271 prepend pos;
#X obj 417 140 hsl 128 17 0 100 0 0 empty empty empty -2 -8 0 10 #e4e4e4 #4d4d4d #373737 0 1;
#X obj 414 174 * 5;
#X obj 337 207 pack f f;
#X obj 414 207 + 50;
#X obj 398 241 prepend size;
#X obj 174 188 hsl 128 17 0 127 0 0 empty empty empty -2 -8 0 10 #e4e4e4 #4d4d4d #373737 0 1;
#X obj 241 223 * 24;
#X obj 289 241 * -1;
#X obj 210 257 pack f f;
#X obj 210 289 prepend transp;
#X obj 362 318 hsl 128 17 0 100 0 0 empty empty empty -2 -8 0 10 #e4e4e4 #4d4d4d #373737 0 1;
#X obj 431 348 * 20;
#X obj 394 371 prepend dur;
#N canvas 0 0 450 250 (subpatch) 0;
#X array samsung 1.323e+06 float 2;
#X coords 0 1 1.323e+06 -1 200 140 1;
#X restore 528 351 graph;
#X obj 293 447 grain.sampler~;
#X obj 323 484 dac~;
#X msg 439 65 read -resize C:/samsung.wav samsung;
#X msg 279 34 read -resize C:/horizon.wav horizon;
#X msg 87 103 set horizon;
#X msg 517 103 set samsung;
#X obj 49 348 spigot;
#X obj 72 299 tgl 25 0 empty empty empty 0 -10 0 10 #e4e4e4 #4d4d4d #373737 0 1;
#X obj 384 277 spigot;
#X obj 271 162 spigot;
#X obj 430 447 spigot;
#X obj 452 408 tgl 25 0 empty empty empty 0 -10 0 10 #e4e4e4 #4d4d4d #373737 0 1;
#X obj 467 265 tgl 25 0 empty empty empty 0 -10 0 10 #e4e4e4 #4d4d4d #373737 0 1;
#X obj 294 126 tgl 25 0 empty empty empty 0 -10 0 10 #e4e4e4 #4d4d4d #373737 0 1;
#X obj 247 361 spigot;
#X obj 270 318 tgl 25 0 empty empty empty 0 -10 0 10 #e4e4e4 #4d4d4d #373737 0 1;
#X connect 0 0 31 0;
#X connect 0 0 30 0;
#X connect 0 0 32 0;
#X connect 0 0 29 0;
#X connect 1 0 6 0;
#X connect 1 1 6 1;
#X connect 2 0 7 0;
#X connect 3 0 1 0;
#X connect 3 0 36 0;
#X connect 4 0 3 0;
#X connect 8 0 9 0;
#X connect 9 0 10 0;
#X connect 9 0 11 0;
#X connect 10 0 11 1;
#X connect 11 0 12 0;
#X connect 12 0 1 0;
#X connect 12 0 33 0;
#X connect 13 0 14 0;
#X connect 14 0 15 0;
#X connect 14 0 16 0;
#X connect 15 0 17 0;
#X connect 16 0 15 1;
#X connect 17 0 1 0;
#X connect 17 0 35 0;
#X connect 18 0 19 0;
#X connect 19 0 21 0;
#X connect 19 0 20 0;
#X connect 20 0 21 1;
#X connect 21 0 22 0;
#X connect 22 0 1 0;
#X connect 22 0 41 0;
#X connect 23 0 24 0;
#X connect 24 0 25 0;
#X connect 25 0 37 0;
#X connect 25 0 1 0;
#X connect 27 0 28 0;
#X connect 27 1 28 1;
#X connect 29 0 2 0;
#X connect 30 0 2 0;
#X connect 31 0 1 0;
#X connect 32 0 27 0;
#X connect 33 0 27 0;
#X connect 34 0 33 1;
#X connect 35 0 27 0;
#X connect 36 0 27 0;
#X connect 37 0 27 0;
#X connect 38 0 37 1;
#X connect 39 0 35 1;
#X connect 40 0 36 1;
#X connect 41 0 27 0;
#X connect 42 0 41 1;
